<svg id="Layer_1" data-name="Layer 1" xmlns="http://www.w3.org/2000/svg" viewBox="0 0 500 500"><defs><style>.cls-1{fill:#231f20;}.cls-2{fill:#f0f;}.cls-3{fill:#c63;}.cls-4{fill:#990;}.cls-5{fill:#900;}.cls-6{fill:#fc0;}.cls-7{fill:lime;}.cls-8{fill:red;}.cls-9{fill:#ff0;}.cls-10{fill:#090;}.cls-11{fill:#333;}</style></defs><title>colorpale</title><path class="cls-1" d="M276.28,63.47a14.57,14.57,0,0,0,11.33-1.61,2.53,2.53,0,0,0,.85-3.48,2.58,2.58,0,0,0-.35-.45,8.06,8.06,0,0,0-7.3-2,7.72,7.72,0,0,0-5.64,4.23,2.72,2.72,0,0,0-.26,1.92,2.61,2.61,0,0,0,1.15,1.5c1.08.57,2.86.38,3.42-.9a4.94,4.94,0,0,1,.35-.64l.18-.27c.21-.32-.36.42-.16.21a5.49,5.49,0,0,1,.4-.43l.24-.22c.32-.29-.52.36-.16.13a8.37,8.37,0,0,1,1-.58c-.8.4-.12.06.12,0l.59-.14.27-.05c-.79.17-.45.06-.23,0h1.29l.56.17c.26.08-.64-.31-.2-.08l.24.12a1.68,1.68,0,0,1,.55.35s-.57-.48-.17-.12l.24.23.51-3.93c-.36.22-.72.42-1.09.6l-.27.13c.39-.19-.2.07-.28.1-.39.14-.79.26-1.19.36a6.41,6.41,0,0,0-1.06.21c.41,0,.47-.06.2,0h-.77c-.42,0-.83,0-1.25,0h-.77c.41.06.48.07.21,0s-.81-.16-1.22-.27a2.5,2.5,0,1,0-1.32,4.83Z"/><g id="circle"><path class="cls-1" d="M87.35,131.47c-5.6,1.09-11.33,2.41-15.79,6.21A15.62,15.62,0,0,0,66,152.1c.42,2.28,1,3.94-.27,5.59a23,23,0,0,1-4.11,3.44A15.23,15.23,0,0,0,57,166.25a13.46,13.46,0,0,0-1,7.89c.8,5.61,4.26,10,6.8,14.85a16,16,0,0,1,2,6.6,18.88,18.88,0,0,1-1,6.5c-2.78,8.71-9.36,17.36-6,26.91,3,8.53,12.07,12.58,20.48,13.79,2.32.33,4.62.44,7,.55a18.46,18.46,0,0,1,3.63.43,8.38,8.38,0,0,1,1.68.59c.24.12.47.27.71.41.82.48,0-.09.41.28a9.57,9.57,0,0,1,2.67,3.68,16.91,16.91,0,0,1,.77,1.86c.33.91.62,1.83.9,2.75,1.88,6.17,4,15.93,12.46,15.12,3.25-.31,6.28-2,9.24-3.27l8.69-3.71,18.06-7.71c4.57-2,9.16-3.88,12.92-7.22a14.37,14.37,0,0,0,5.09-12.69c-.3-2.46-1.29-5.33.14-7.6,1.31-2.07,3.22-3.56,4.15-5.89,1.69-4.19.43-9.21-2.49-12.53a9.8,9.8,0,0,0-5.21-3.08l.6,4.57c3.78-2.27,7.89-4.86,9.89-9s2-9-1-12.54l-.5,3.93c6.67-3.76,9.82-11.87,8.41-19.23a2.5,2.5,0,0,0-3.08-1.74,2.55,2.55,0,0,0-.59.25,3.17,3.17,0,0,1-3.31.73,8.58,8.58,0,0,1-3.56-2.62c-2.52-2.88-3.08-6.42-3.17-10.11-.12-4.66.29-9.37-.8-13.95a18.71,18.71,0,0,0-6.59-10.31,43.14,43.14,0,0,0-10.56-5.86c-4.54-1.91-9.1-3.77-13.66-5.63s-9-3.26-13.9-2.46a31.34,31.34,0,0,0-9.86,3.93c-3.19,1.78-6.45,4-9.7,5.33a14.34,14.34,0,0,1-4.6,1.15A7.18,7.18,0,0,1,89,130.12c-2.79-1.62-5.31,2.7-2.52,4.32,6.61,3.84,13.51.4,19.44-3.05A60.17,60.17,0,0,1,115,126.6c4-1.49,7.67-1.19,11.8.27,4.91,1.75,9.69,3.92,14.5,5.9a46.18,46.18,0,0,1,10.38,5.35,14.65,14.65,0,0,1,5.81,9.7c.72,4.54.07,9.2.46,13.77a18.14,18.14,0,0,0,5.7,12.26c3.24,2.89,8,4.33,11.73,1.46l-3.67-1.49a13.13,13.13,0,0,1-6.12,13.58,2.54,2.54,0,0,0-.82,3.51,2.59,2.59,0,0,0,.32.42c1.7,2,.94,5.37-.33,7.41-1.75,2.83-4.8,4.57-7.57,6.24-1.75,1.05-1.58,4.12.6,4.57,3,.62,4.83,3.84,4.77,6.93,0,1.81-.85,3.11-2.16,4.61-1.84,2.12-3.23,4.18-3.46,7.06-.2,2.63.77,5.19.72,7.81a8.5,8.5,0,0,1-1.82,5c-2.43,3.22-6.36,5.2-10,6.81-11,4.92-22.25,9.52-33.37,14.27a19.15,19.15,0,0,1-3.76,1.35,5.1,5.1,0,0,1-1.56.08c.43,0-.57-.15-.76-.21s-.56-.24-.09,0l-.37-.19-.36-.22c-.55-.32.23.22-.07,0a6.1,6.1,0,0,1-.68-.65,1.66,1.66,0,0,1-.28-.32c.35.41-.09-.14-.13-.19-1.61-2.51-2.28-5.3-3.2-8.44s-2-6.63-4-9.39a12,12,0,0,0-4.53-4,20.3,20.3,0,0,0-7.88-1.54c-7.15-.28-16-1.64-20.52-7.63-5.37-7-.46-15.64,2.51-22.65,1.76-4.14,3.33-8.57,2.94-13.14-.45-5.32-3.33-9.64-5.94-14.13-2.06-3.53-4.46-8.71-2.11-12.66,1.89-3.19,6.06-4.65,8.33-7.75a8.69,8.69,0,0,0,1.5-6.52c-.35-2.42-1-4.45-.31-6.87,1.38-4.64,5.6-7.46,10-8.89a62.6,62.6,0,0,1,7.54-1.79,2.5,2.5,0,1,0-1.33-4.82Z"/></g><g id="triangle"><path class="cls-1" d="M217.17,250.59a120.2,120.2,0,0,1,5-25.13c2.52-8.06,6.18-15.55,9.65-23.23a92.86,92.86,0,0,0,4.61-11.94,70.69,70.69,0,0,0,2.3-13.16c.8-8.57,1.13-17.08,2.89-25.54a115.55,115.55,0,0,1,9-26.64l-3.42.9c5.62,4.05,9.7,9.85,13.17,15.76,3.93,6.69,7.35,13.69,11,20.54q11.94,22.42,24.52,44.51,6.33,11.07,12.8,22.05,3.21,5.43,6.46,10.84c.81,1.35,1.82,2.94,1.81,4.38a3.25,3.25,0,0,1-.21,1.38c-.11.37,0,0-.15.38a7.72,7.72,0,0,1-.57.91c.15-.2-.25.26-.31.32a6.63,6.63,0,0,1-.61.57,9.32,9.32,0,0,1-1.4.95,15.77,15.77,0,0,1-3.42,1.43,41.17,41.17,0,0,1-9.31,1.2l-26.19,1.79-52.13,3.55-6.48.45,2.5,2.5-.22-8.72c-.07-3.21-5.07-3.22-5,0l.22,8.72a2.54,2.54,0,0,0,2.5,2.5l54.12-3.7,27.19-1.85c6.58-.45,14.08-.21,19.75-4.19a10.19,10.19,0,0,0,4.66-7.2c.44-4-2.12-7.37-4-10.6Q311,223,304.43,211.51q-13.19-22.84-25.65-46.09c-4-7.38-7.76-14.84-11.76-22.19-3.54-6.52-7.53-13-13-18.16a42,42,0,0,0-4.33-3.54,2.52,2.52,0,0,0-3.42.89,122.28,122.28,0,0,0-8.71,24.28A158.84,158.84,0,0,0,234,172.85a86.24,86.24,0,0,1-1.66,13,66.09,66.09,0,0,1-4,11.77c-3.45,7.94-7.42,15.6-10.2,23.83a125.77,125.77,0,0,0-6,29.11,2.51,2.51,0,0,0,2.5,2.5,2.55,2.55,0,0,0,2.5-2.5Z"/></g><g id="square"><path class="cls-1" d="M354.72,139c1.57,4.77.49,9.54-1.2,14.12-1.81,4.93-4.27,9.6-5.93,14.58-1.84,5.52-2.33,11.37-2.52,17.15s-.33,11.39-.2,17.09c.25,10.75,1.67,21.92,7.06,31.43,4.44,7.84,11.76,15,20.86,16.74,5.74,1.13,11.36-.16,17-1.25a58.77,58.77,0,0,1,17.21-.64,143.58,143.58,0,0,1,17.22,3.14c5.71,1.3,11.49,2.93,17.33,3.5,5.42.53,10.44-1.23,13.85-5.55,3.22-4.07,4.87-9.14,5.93-14.16,2.43-11.54,1.67-23.39,1.06-35.07-.63-12.18-1.3-24.36-2.61-36.49-.58-5.31-1.54-10.58-1.89-15.89-.24-3.77-.27-8.17,1.44-11.5a7.67,7.67,0,0,1,3.15-3.35c1.72-1,1.6-4.22-.6-4.57-14.4-2.28-28.88-1-43.18,1.36-7.17,1.18-14.28,2.62-21.41,4A179.67,179.67,0,0,1,378,136.73c-6.75.53-13.65,0-19.47-3.76-2.71-1.76-5.21,2.57-2.52,4.32,11.29,7.3,25.56,4.34,37.89,2.05,14.15-2.63,28.25-5.87,42.63-7a104,104,0,0,1,24.05.71l-.6-4.57c-7.71,4.41-7.65,14.71-6.76,22.43.66,5.68,1.49,11.34,2,17,.56,5.91,1,11.83,1.36,17.75.38,6.07.7,12.14,1,18.21.28,5.67.53,11.35.34,17a68.53,68.53,0,0,1-2.45,16.91c-1.11,3.83-2.88,8.24-6.35,10.54-4.37,2.91-10.21,1.08-14.91.06-5.72-1.24-11.4-2.66-17.14-3.77a90,90,0,0,0-17.39-1.88c-5.91,0-11.5,1.41-17.29,2.34a21.8,21.8,0,0,1-13.23-1.53,28.61,28.61,0,0,1-9.77-8.08c-6.23-7.81-8.53-17.91-9.25-27.67-.41-5.6-.36-11.21-.24-16.82S350,179.8,351,174.33c1.89-10.21,8.87-19,9.48-29.47a19.91,19.91,0,0,0-1-7.31c-1-3-5.84-1.73-4.82,1.33Z"/></g><g id="Fuchsia"><path class="cls-2" d="M352.56,371.37v23.46q50.25-1.74,100.55-.65l1-.07a173.8,173.8,0,0,0,.37-24.15H352.56"/></g><g id="Chocolate"><path class="cls-3" d="M204,371.37v23.46q50.25-1.74,100.55-.65l1-.07a173.8,173.8,0,0,0,.37-24.15H204"/></g><g id="Olive"><path class="cls-4" d="M52.8,371.37v23.46q50.25-1.74,100.55-.65l1-.07a173.8,173.8,0,0,0,.37-24.15H52.8"/></g><g id="Maroon"><path class="cls-5" d="M352.47,333.11v23.46q50.25-1.74,100.55-.65l1-.07a172.27,172.27,0,0,0,.37-24.15H352.47"/></g><g id="Gold"><path class="cls-6" d="M204.88,331.11v23.46q50.25-1.74,100.55-.65l.95-.07a172.27,172.27,0,0,0,.37-24.15H204.88"/></g><g id="Lime"><path class="cls-7" d="M53.47,331.11v23.46q50.25-1.74,100.55-.65l.95-.07a170.76,170.76,0,0,0,.37-24.15H53.47"/></g><g id="red"><path class="cls-8" d="M352.23,290.85v23.46q50.25-1.74,100.55-.65l1-.07a170.76,170.76,0,0,0,.37-24.15H352.23"/></g><g id="yellow"><path class="cls-9" d="M204.64,290.85v23.46q50.25-1.74,100.55-.65l1-.07a173.8,173.8,0,0,0,.37-24.15H204.64"/></g><g id="green"><path class="cls-10" d="M53.47,290.85v23.46q50.25-1.74,100.55-.65l.95-.07a170.76,170.76,0,0,0,.37-24.15H53.47"/></g><g id="Layer_2" data-name="Layer 2"><g id="Layer_22" data-name="Layer 22"><path class="cls-11" d="M114.17,42.88c-11.2-3.5-21,6.19-26.77,14.61a27.39,27.39,0,0,0-4.08,7.91,15.72,15.72,0,0,0,0,8,20.87,20.87,0,0,0,9.54,12.33c5.76,3.47,12.6,4.45,19.2,4.78,3.22.17,3.21-4.83,0-5-8.8-.45-19.52-2.51-23.33-11.63A11.51,11.51,0,0,1,87.86,68a16.83,16.83,0,0,1,2.9-6.52A41.92,41.92,0,0,1,100,51c3.71-2.87,8.2-4.71,12.86-3.26,3.08,1,4.39-3.86,1.33-4.82Z"/></g><g id="Layer_21" data-name="Layer 21"><path class="cls-11" d="M140.55,70.88c-7,5.8-3.52,18,4.22,21.32a17,17,0,0,0,14.6-1,20.35,20.35,0,0,0,5.9-4.65,8.56,8.56,0,0,0,2.07-3.26c.48-1.81-.45-3.33-1.43-4.74a44.13,44.13,0,0,0-13.53-12.67c-2.77-1.66-5.28,2.66-2.52,4.31a39.55,39.55,0,0,1,10,8.59c.62.74,1.2,1.5,1.75,2.29a10.37,10.37,0,0,0,.89,1.37l.09.15c-.18-.27-.19-.48-.05-.63a5.07,5.07,0,0,1-.36.54,15.27,15.27,0,0,1-4,3.64,12.82,12.82,0,0,1-10.22,2,7.44,7.44,0,0,1-3.61-2.26,10.24,10.24,0,0,1-2-3.4c-.13-.42-.25-.84-.34-1.27a3.39,3.39,0,0,0-.1-.52c-.1-.56,0,.16,0-.36s0-.86,0-1.29v-.51c.05-.58,0,.19.05-.33a10.22,10.22,0,0,1,.31-1.21,3.15,3.15,0,0,1,.41-.87,5.17,5.17,0,0,1,1.51-1.71,2.5,2.5,0,0,0,0-3.53,2.57,2.57,0,0,0-3.62,0Z"/></g><g id="Layer_20" data-name="Layer 20"><path class="cls-11" d="M181.77,52.14a203.83,203.83,0,0,1-1.53,36.79,2.52,2.52,0,0,0,2.5,2.5,2.56,2.56,0,0,0,2.5-2.5,203.83,203.83,0,0,0,1.53-36.79C186.62,48.94,181.62,48.92,181.77,52.14Z"/></g><g id="Layer_19" data-name="Layer 19"><path class="cls-11" d="M203.47,68.57a24.63,24.63,0,0,0,4,20.71c2.43,3.22,5.68,6.21,9.85,6.63,3.77.38,7.31-1.81,9.54-4.7,2.92-3.8,3.43-8.69,3.86-13.31a2.51,2.51,0,0,0-1.83-2.41l-23.83-6.81c-3.1-.89-4.42,3.94-1.33,4.82l23.82,6.81-1.81-2.43c-.34,3.66-.65,8-3.29,10.85a6.55,6.55,0,0,1-3.71,2.18,6.07,6.07,0,0,1-4.66-1.8,19.47,19.47,0,0,1-5.79-19.23c.81-3.12-4-4.45-4.82-1.33Z"/></g><g id="Layer_18" data-name="Layer 18"><path class="cls-11" d="M239.47,72.73l2.5,14a2.52,2.52,0,0,0,3.12,1.73,2.21,2.21,0,0,0,.55-.23,58,58,0,0,0,16.45-15.6,2.5,2.5,0,0,0-.89-3.42,2.55,2.55,0,0,0-3.42.89,52,52,0,0,1-14.66,13.78l3.67,1.49-2.5-14a2.52,2.52,0,0,0-3.08-1.74,2.56,2.56,0,0,0-1.74,3.07Z"/></g><g id="Layer_17" data-name="Layer 17"><path class="cls-11" d="M277,69.26l-5.43,12.82A2.81,2.81,0,0,0,271.3,84a2.53,2.53,0,0,0,1.15,1.49c1.07.57,2.87.39,3.42-.89l5.48-12.83a2.77,2.77,0,0,0,.2-1.9,2.58,2.58,0,0,0-1.15-1.5c-1.07-.56-2.87-.38-3.42.9Z"/></g><g id="Layer_16" data-name="Layer 16"><path class="cls-11" d="M289.44,72l.17,10.85a2.53,2.53,0,0,0,2.57,2.49,2.41,2.41,0,0,0,.6-.08l13.77-3.07c1.77-.4,4.07-1.26,5.88-.65a1.62,1.62,0,0,1,1.08.88c-.06-.13.14.73.14.41s.06-.13,0,.17c.05-.17,0-.11-.15.17a2.53,2.53,0,0,0,.9,3.42,2.56,2.56,0,0,0,3.42-.9c1.53-2.22.82-5.15-.88-7-1.94-2.18-5-2.46-7.68-2.08-2.94.41-5.85,1.22-8.75,1.87l-9,2,3.16,2.41L294.5,72c-.05-3.21-5.05-3.22-5,0Z"/></g><g id="Layer_15" data-name="Layer 15"><path class="cls-11" d="M329,79.06a29.91,29.91,0,0,0,11.36,13,2.57,2.57,0,0,0,3.42-.9c5.08-6.85-1.06-18-9.41-17.75a2.5,2.5,0,0,0,0,5H335c.48,0,.18.11,0,0a5,5,0,0,0,1.07.25,2.19,2.19,0,0,0,.59.21q-.49-.21-.24-.09l.21.1a8,8,0,0,1,.94.56c.58.4-.2-.2.13.09l.36.31a8.29,8.29,0,0,1,.77.8l.21.25c-.21-.27-.26-.34-.15-.19l.33.46a9.9,9.9,0,0,1,.57,1c.08.14.14.29.21.44.2.39-.18-.52.06.14a8,8,0,0,1,.34,1.08,2.63,2.63,0,0,0,.1.47l.06.31v-.19a5.16,5.16,0,0,0,0,1.11V86c0,.72.09-.33,0,.11a7.77,7.77,0,0,1-.25,1.06c0,.09-.19.38-.16.45.15-.36.17-.41.06-.17l-.1.22a8.15,8.15,0,0,1-.65,1l3.42-.9c-.56-.36-1.11-.73-1.65-1.12l-.36-.27c.2.15.14.12,0,0l-.77-.64a27,27,0,0,1-2.91-2.85c-.2-.22-.39-.45-.58-.68s-.23-.28-.34-.43h0c-.39-.54-.78-1.08-1.13-1.64a27.63,27.63,0,0,1-1.88-3.52,2.51,2.51,0,0,0-3.42-.9,2.59,2.59,0,0,0-.9,3.42Z"/></g><g id="Layer_14" data-name="Layer 14"><path class="cls-11" d="M345.17,87.18c1.49,7.54,3.19,15.86,0,23.22a15.26,15.26,0,0,1-5.59,7c-3.1,2-6.81,2.34-10.4,2.11-2.43-.15-6-.53-7.44-2.59-.2-.3-.2-.28-.2-.54,0,.35,0,.08.06-.07a2.87,2.87,0,0,1,1-.93,31.23,31.23,0,0,1,5-2,144.48,144.48,0,0,1,52-8.07c3.21.09,3.21-4.91,0-5a149.47,149.47,0,0,0-56.18,9.29,13.32,13.32,0,0,0-5.22,2.84,5.8,5.8,0,0,0-1.45,5.5c1,3.58,5.16,5.58,8.55,6.1,4.38.68,9.06.85,13.29-.69a18.5,18.5,0,0,0,9.35-7.59c5.81-9,3.95-20,2-29.9a2.52,2.52,0,0,0-3.07-1.74,2.56,2.56,0,0,0-1.75,3.07Z"/></g><g id="Layer_13" data-name="Layer 13"><path class="cls-11" d="M94.05,474.07v5.42l4.91-.66A323.27,323.27,0,0,1,96,441.14c0-1.56,0-3.13-.06-4.69a10.7,10.7,0,0,1,.38-3.86c.63-1.6,2.17-2.32,3.8-2.73a22,22,0,0,1,6-.44,8.47,8.47,0,0,1,2.6.37c.52.19,1,.44.87,1s-1.1,1.27-1.74,1.62a8.6,8.6,0,0,1-3.31.79c-3,.3-5.91.68-8.3,2.76a2.53,2.53,0,0,0-.64,2.44c1.14,4.24,5.54,5.17,9.24,6.14a17.09,17.09,0,0,1,9.2,6.18,16.62,16.62,0,0,1-.29,21,17.75,17.75,0,0,1-11,6.25A2.52,2.52,0,0,0,101,481a2.56,2.56,0,0,0,3.08,1.75c8.86-1.31,16.53-8.8,18.27-17.56,1.81-9.16-2.91-18.77-10.94-23.41a25.77,25.77,0,0,0-6.75-2.51,15.82,15.82,0,0,1-2.74-.86,4.25,4.25,0,0,1-1.06-.68,1.87,1.87,0,0,1-.4-.73l-.64,2.43c1.9-1.66,5.34-1.22,7.66-1.67a9.29,9.29,0,0,0,6.6-4.89,5.65,5.65,0,0,0-2.85-7.48l-.24-.1c-2.4-1-5.27-1-7.84-.88a17.07,17.07,0,0,0-7.63,1.88A9.26,9.26,0,0,0,91,433.72a81.71,81.71,0,0,0,0,10.38q.18,5.43.49,10.84c.53,8.44,1.4,16.84,2.55,25.21a2.5,2.5,0,0,0,4.91-.66v-5.42c0-3.21-5-3.22-5,0Z"/></g><g id="Layer_12" data-name="Layer 12"><path class="cls-11" d="M125.11,463.48c.56,3.8,4.69,5.92,8.23,5.72a9,9,0,0,0,5.45-2.15,11.84,11.84,0,0,0,3.42-5.58,21.38,21.38,0,0,0,.76-7.07,2.55,2.55,0,0,0-2.5-2.5l-14.19-.23a2.52,2.52,0,0,0-2.5,2.5,2.55,2.55,0,0,0,2.5,2.5l14.19.23-2.5-2.5a24.27,24.27,0,0,1-.06,3.19c0,.11-.14,1,0,.4a4.15,4.15,0,0,1-.15.83,13.37,13.37,0,0,1-.36,1.42c-.09.27-.18.53-.28.79.21-.57-.11.23-.16.34a10,10,0,0,1-.74,1.21c.33-.49-.17.2-.25.29s-.4.38-.59.57c-.4.4.44-.27-.16.13-.16.1-.33.18-.48.27-.54.32.4-.11-.06,0-.21.07-.41.14-.61.19s-.57.06-.63.14q.6-.07.18,0h-.24c-.28,0-1-.15-1.2,0,.4,0,.46.06.19,0l-.31-.07-.53-.14-.22-.08c-.25-.09-.19-.06.17.08-.09-.11-.41-.2-.54-.27l-.25-.16c-.22-.15-.17-.11.15.13-.08-.13-.28-.24-.38-.34l-.15-.16c-.17-.2-.13-.15.11.16a2.48,2.48,0,0,0-.3-.49c-.21-.35.17.56,0-.1q-.08-.3-.12-.6a2.51,2.51,0,0,0-3.08-1.75,2.59,2.59,0,0,0-1.75,3.08Z"/></g><g id="Layer_11" data-name="Layer 11"><path class="cls-11" d="M150.32,457.45c3.47,3.18,7.24,6.33,12.09,6.9a9.9,9.9,0,0,0,10.14-6.22,6.88,6.88,0,0,0-.39-5.92,9,9,0,0,0-4.2-3.28,14.32,14.32,0,0,0-10.19-.44,13.19,13.19,0,0,0-8.45,7.91,2.5,2.5,0,1,0,4.82,1.33s.27-.63.11-.28.05-.1.09-.17c.15-.27.29-.54.46-.8s.54-.73.2-.32c.24-.28.48-.56.75-.82s.45-.41.68-.61.37-.27,0,0l.34-.24a14.17,14.17,0,0,1,1.7-.95c.37-.18-.56.2.07,0l.39-.14c.26-.09.52-.18.79-.25l1-.24.41-.07c-.44.08-.07,0,.16,0a12.92,12.92,0,0,1,1.76,0c.16,0,1.08.12.46,0a4.33,4.33,0,0,1,1,.2c.33.08.53.14.79.22l.47.17c.38.14-.52-.27.06,0a11.18,11.18,0,0,1,1.57.93c-.46-.34.27.25.37.33l.07.08h0s.23.5,0,0c.06.17.2.93.15.39v.72c0,.18-.34,1-.14.55a4.69,4.69,0,0,1-.44.79,5.79,5.79,0,0,1-1.12,1.2c.26-.21-.38.25-.33.22l-.41.24-.43.22h-.06a8.85,8.85,0,0,1-1.15.31h-.77a10,10,0,0,1-4.67-1.77,33.88,33.88,0,0,1-4.62-3.76,2.5,2.5,0,1,0-3.53,3.54Z"/></g><g id="Layer_10" data-name="Layer 10"><path class="cls-11" d="M176.24,438.68A85,85,0,0,0,177.55,462a2.5,2.5,0,1,0,4.82-1.33,80,80,0,0,1-1.13-22,2.51,2.51,0,0,0-2.5-2.5,2.57,2.57,0,0,0-2.5,2.5Z"/></g><g id="Layer_9" data-name="Layer 9"><path class="cls-11" d="M189.15,447.66a6.24,6.24,0,0,0-6.37,2.69,2.43,2.43,0,0,0,0,2.52,24.26,24.26,0,0,0,20,10.94,2.5,2.5,0,1,0,0-5,18.78,18.78,0,0,1-8.85-2.29c-.71-.39-1.4-.82-2.07-1.28a15.16,15.16,0,0,1-1.61-1.29,18.48,18.48,0,0,1-3.12-3.6v2.53c-.19.28.24-.23.29-.26-.3.21.31-.09.07,0s.43-.11.43-.11c-.44.08.41.07-.06,0a2.55,2.55,0,0,0,3.07-1.74,2.52,2.52,0,0,0-1.74-3.08Z"/></g><g id="Layer_8" data-name="Layer 8"><path class="cls-11" d="M278.11,420.27v13.05c0,3.25,4.77,3.18,5,0l.56-7.78-4.91.66A158.1,158.1,0,0,1,281,461.76h5a282,282,0,0,1-1.29-42.71l-4.66,1.26A83.21,83.21,0,0,0,304.7,450.8c1.43,1.1,3.14-.2,3.67-1.49a88.05,88.05,0,0,1,19.35-28.67l-4.17-1.1a73.91,73.91,0,0,1,5.52,31.88c-.16,3.21,4.84,3.2,5,0a77.23,77.23,0,0,0-5.7-33.21c-.7-1.69-2.72-2.55-4.18-1.11A94.33,94.33,0,0,0,303.55,448l3.67-1.5a78.08,78.08,0,0,1-22.83-28.69c-1.12-2.4-4.56-1-4.66,1.26A282,282,0,0,0,281,461.76c.33,3.16,4.84,3.28,5,0a164,164,0,0,0-2.47-36.88,2.47,2.47,0,0,0-2.74-1.79,2.54,2.54,0,0,0-2.17,2.46l-.56,7.78h5V420.27c0-3.22-5-3.22-5,0Z"/></g><g id="Layer_7" data-name="Layer 7"><path class="cls-11" d="M347.49,440.09v15.58a2.5,2.5,0,1,0,5,0V440.09a2.5,2.5,0,1,0-5,0Z"/></g><g id="Layer_6" data-name="Layer 6"><path class="cls-11" d="M361.65,445.76v15.31l4.91-.66c-.81-4.29.82-8.54,2.88-12.23s4.58-7.81,7.8-10.7c1.12-1,2.63-2,4.2-1.8a3.8,3.8,0,0,1,2.85,2.21c1.81,3.22,1.6,7.49,1.6,11.08a98,98,0,0,1-1.55,17.35,2.58,2.58,0,0,0,1.75,3.07,2.52,2.52,0,0,0,3.08-1.74,105.52,105.52,0,0,0,1.72-18.44c0-4.65.06-9.84-2.36-14a8.79,8.79,0,0,0-12-3.37l-.41.24c-4.39,2.61-7.44,7.6-10,11.85-3.3,5.39-5.58,11.41-4.39,17.79.53,2.81,4.92,2.09,4.92-.67V445.74c0-3.22-5-3.23-5,0Z"/></g><g id="Layer_5" data-name="Layer 5"><path class="cls-11" d="M404.12,438.68v31.2c0,3.21,5,3.22,5,0v-31.2C409.12,435.46,404.12,435.45,404.12,438.68Z"/></g><g id="Layer_4" data-name="Layer 4"><path class="cls-11" d="M401.78,426.47l12.27,2a2.58,2.58,0,0,0,2.82-1.15,2.53,2.53,0,0,0-.39-3,22.5,22.5,0,0,1-2.3-2.28l-.48-.58q-.27-.34-.06-.09l-.22-.3q-.48-.66-.9-1.35c-.26-.42-.51-.86-.74-1.3-.14-.26-.26-.52-.39-.78,0-.08-.36-.82-.2-.44a22.14,22.14,0,0,1-1-3.08,2.58,2.58,0,0,0-3.08-1.75,16.17,16.17,0,0,0-9.82,5.82,2.59,2.59,0,0,0,0,3.54c.9.82,2.68,1.1,3.54,0a14.51,14.51,0,0,1,1.64-1.77c.17-.16.36-.32.54-.47-.2.16-.05,0,.07-.05.36-.26.73-.51,1.11-.74s.7-.39,1.06-.57c.07,0,.56-.25.18-.09.19-.08.37-.15.56-.21a14,14,0,0,1,2.45-.64l-3.07-1.74a24.17,24.17,0,0,0,7.56,12.41l2.44-4.18-12.27-2a2.57,2.57,0,0,0-3.07,1.75,2.52,2.52,0,0,0,1.74,3.07Z"/></g><g id="Layer_3" data-name="Layer 3"><path class="cls-11" d="M352.17,427.31c-.07.48.08-.48.09-.56.06-.33.13-.65.2-1,.13-.56.28-1.12.46-1.67.1-.32.2-.63.32-.94a3.83,3.83,0,0,1,.21-.55q.38-.85.81-1.68c.29-.55.61-1.08.94-1.6.18-.28.37-.55.56-.82l.3-.4h0a21.7,21.7,0,0,1,2.65-2.77l-4.27-1.77.08,14.9L357,426l-15.51.42a2.5,2.5,0,0,0,0,5L357,431a2.53,2.53,0,0,0,2.5-2.5l-.08-14.9a2.53,2.53,0,0,0-4.27-1.77,24.69,24.69,0,0,0-8,15.5,2.5,2.5,0,0,0,2.5,2.5,2.59,2.59,0,0,0,2.5-2.5Z"/></g></g></svg>